<?xml version="1.0" encoding="UTF-8" standalone="no"?>
<!-- Created with Inkscape (http://www.inkscape.org/) -->

<svg
   width="1000"
   height="950"
   viewBox="0 0 264.58333 251.35417"
   version="1.1"
   id="svg5"
   inkscape:version="1.2.2 (b0a8486541, 2022-12-01)"
   sodipodi:docname="bigb-publish-to-web-or-static.svg"
   xml:space="preserve"
   inkscape:export-filename="bigb-publish-to-web-or-static.png"
   inkscape:export-xdpi="96"
   inkscape:export-ydpi="96"
   xmlns:inkscape="http://www.inkscape.org/namespaces/inkscape"
   xmlns:sodipodi="http://sodipodi.sourceforge.net/DTD/sodipodi-0.dtd"
   xmlns="http://www.w3.org/2000/svg"
   xmlns:svg="http://www.w3.org/2000/svg"
   xmlns:rdf="http://www.w3.org/1999/02/22-rdf-syntax-ns#"
   xmlns:cc="http://creativecommons.org/ns#"
   xmlns:ooo="http://xml.openoffice.org/svg/export"><sodipodi:namedview
     id="namedview7"
     pagecolor="#ffffff"
     bordercolor="#000000"
     borderopacity="0.25"
     inkscape:showpageshadow="2"
     inkscape:pageopacity="0.0"
     inkscape:pagecheckerboard="0"
     inkscape:deskcolor="#d1d1d1"
     inkscape:document-units="mm"
     showgrid="true"
     inkscape:zoom="0.80086907"
     inkscape:cx="407.0578"
     inkscape:cy="530.67351"
     inkscape:window-width="1920"
     inkscape:window-height="1131"
     inkscape:window-x="0"
     inkscape:window-y="32"
     inkscape:window-maximized="1"
     inkscape:current-layer="layer1"><inkscape:grid
       type="xygrid"
       id="grid132"
       spacingx="3.3072916"
       spacingy="3.3072916"
       originx="0"
       originy="0" /></sodipodi:namedview><defs
     id="defs2"><marker
       style="overflow:visible"
       id="TriangleStart"
       refX="0"
       refY="0"
       orient="auto-start-reverse"
       inkscape:stockid="TriangleStart"
       markerWidth="2"
       markerHeight="6"
       viewBox="0 0 5.3244081 6.1553851"
       inkscape:isstock="true"
       inkscape:collect="always"
       preserveAspectRatio="xMidYMid"><path
         transform="scale(0.5)"
         style="fill:context-stroke;fill-rule:evenodd;stroke:context-stroke;stroke-width:1pt"
         d="M 5.77,0 -2.88,5 V -5 Z"
         id="path135" /></marker><inkscape:perspective
       sodipodi:type="inkscape:persp3d"
       inkscape:vp_x="0 : 119.0625 : 1"
       inkscape:vp_y="0 : 1000 : 0"
       inkscape:vp_z="264.58333 : 119.0625 : 1"
       inkscape:persp3d-origin="132.29166 : 74.965279 : 1"
       id="perspective1251" /><marker
       style="overflow:visible"
       id="TriangleStart-3"
       refX="0"
       refY="0"
       orient="auto-start-reverse"
       inkscape:stockid="TriangleStart"
       markerWidth="2"
       markerHeight="6"
       viewBox="0 0 5.3244081 6.1553851"
       inkscape:isstock="true"
       inkscape:collect="always"
       preserveAspectRatio="xMidYMid"><path
         transform="scale(0.5)"
         style="fill:context-stroke;fill-rule:evenodd;stroke:context-stroke;stroke-width:1pt"
         d="M 5.77,0 -2.88,5 V -5 Z"
         id="path135-6" /></marker><linearGradient
       id="linearGradient3802"
       y2="957.35999"
       gradientUnits="userSpaceOnUse"
       x2="80"
       gradientTransform="translate(2,-2)"
       y1="944.35999"
       x1="93"><stop
         id="stop3804"
         stop-color="#ccc"
         offset="0" /><stop
         id="stop3806"
         stop-color="#e6e6e6"
         offset="0.41879094" /><stop
         id="stop3808"
         stop-color="#fff"
         offset=".46933" /><stop
         id="stop3810"
         stop-color="#e6e6e6"
         offset="1" /></linearGradient><linearGradient
       id="linearGradient3794"
       y2="-112"
       gradientUnits="userSpaceOnUse"
       x2="-80"
       gradientTransform="translate(2,922.36)"
       y1="123"
       x1="105"><stop
         style="stop-color:#ffffff;stop-opacity:1"
         id="stop3796"
         stop-color="#e6e6e6"
         offset="0" /><stop
         id="stop3798"
         stop-color="#f9f9f9"
         offset="1" /></linearGradient><linearGradient
       x1="105"
       y1="123"
       gradientTransform="translate(2,922.36)"
       x2="-80"
       gradientUnits="userSpaceOnUse"
       y2="-112"
       id="linearGradient3046"><stop
         offset="0"
         stop-color="#e6e6e6"
         id="stop3602" /><stop
         offset="1"
         stop-color="#f9f9f9"
         id="stop3604" /></linearGradient><linearGradient
       x1="93"
       y1="944.35999"
       gradientTransform="translate(2,-2)"
       x2="80"
       gradientUnits="userSpaceOnUse"
       y2="957.35999"
       id="linearGradient3048"><stop
         offset="0"
         stop-color="#ccc"
         id="stop3610" /><stop
         offset=".22008"
         stop-color="#e6e6e6"
         id="stop3616" /><stop
         offset=".46933"
         stop-color="#fff"
         id="stop3618" /><stop
         offset="1"
         stop-color="#e6e6e6"
         id="stop3612" /></linearGradient><linearGradient
       id="linearGradient3928-8-0"><stop
         id="stop3930-2-5"
         style="stop-color:#7c7c7c"
         offset="0" /><stop
         id="stop3932-0-0"
         style="stop-color:#e6e3e3"
         offset="1" /></linearGradient><clipPath
       id="presentation_clip_path"
       clipPathUnits="userSpaceOnUse">
   <rect
   x="0"
   y="0"
   width="15375"
   height="17876"
   id="rect1121" />
  </clipPath><g
       ooo:slide="id1"
       ooo:id-list="id3 id4 id5 id6 id7 id8 id9 id10 id11 id12 id13 id14 id15 id16 id17"
       id="g1126" /><g
       id="bullet-char-template(57356)"
       transform="matrix(4.8828125e-4,0,0,-4.8828125e-4,0,0)">
   <path
   d="M 580,1141 1163,571 580,0 -4,571 Z"
   id="path1130" />
  </g><g
       id="bullet-char-template(57354)"
       transform="matrix(4.8828125e-4,0,0,-4.8828125e-4,0,0)">
   <path
   d="M 8,1128 H 1137 V 0 H 8 Z"
   id="path1133" />
  </g><g
       id="bullet-char-template(10146)"
       transform="matrix(4.8828125e-4,0,0,-4.8828125e-4,0,0)">
   <path
   d="M 174,0 602,739 174,1481 1456,739 Z M 1358,739 309,1346 659,739 Z"
   id="path1136" />
  </g><g
       id="bullet-char-template(10132)"
       transform="matrix(4.8828125e-4,0,0,-4.8828125e-4,0,0)">
   <path
   d="M 2015,739 1276,0 H 717 l 543,543 H 174 v 393 h 1086 l -543,545 h 557 z"
   id="path1139" />
  </g><g
       id="bullet-char-template(10007)"
       transform="matrix(4.8828125e-4,0,0,-4.8828125e-4,0,0)">
   <path
   d="m 0,-2 c -7,16 -16,29 -25,39 l 381,530 c -94,256 -141,385 -141,387 0,25 13,38 40,38 9,0 21,-2 34,-5 21,4 42,12 65,25 l 27,-13 111,-251 280,301 64,-25 24,25 c 21,-10 41,-24 62,-43 C 886,937 835,863 770,784 769,783 710,716 594,584 L 774,223 c 0,-27 -21,-55 -63,-84 l 16,-20 C 717,90 699,76 672,76 641,76 570,178 457,381 L 164,-76 c -22,-34 -53,-51 -92,-51 -42,0 -63,17 -64,51 -7,9 -10,24 -10,44 0,9 1,19 2,30 z"
   id="path1142" />
  </g><g
       id="bullet-char-template(10004)"
       transform="matrix(4.8828125e-4,0,0,-4.8828125e-4,0,0)">
   <path
   d="M 285,-33 C 182,-33 111,30 74,156 52,228 41,333 41,471 c 0,78 14,145 41,201 34,71 87,106 158,106 53,0 88,-31 106,-94 l 23,-176 c 8,-64 28,-97 59,-98 l 735,706 c 11,11 33,17 66,17 42,0 63,-15 63,-46 V 965 c 0,-36 -10,-64 -30,-84 L 442,47 C 390,-6 338,-33 285,-33 Z"
   id="path1145" />
  </g><g
       id="bullet-char-template(9679)"
       transform="matrix(4.8828125e-4,0,0,-4.8828125e-4,0,0)">
   <path
   d="M 813,0 C 632,0 489,54 383,161 276,268 223,411 223,592 c 0,181 53,324 160,431 106,107 249,161 430,161 179,0 323,-54 432,-161 108,-107 162,-251 162,-431 0,-180 -54,-324 -162,-431 C 1136,54 992,0 813,0 Z"
   id="path1148" />
  </g><g
       id="bullet-char-template(8226)"
       transform="matrix(4.8828125e-4,0,0,-4.8828125e-4,0,0)">
   <path
   d="m 346,457 c -73,0 -137,26 -191,78 -54,51 -81,114 -81,188 0,73 27,136 81,188 54,52 118,78 191,78 73,0 134,-26 185,-79 51,-51 77,-114 77,-187 0,-75 -25,-137 -76,-188 -50,-52 -112,-78 -186,-78 z"
   id="path1151" />
  </g><g
       id="bullet-char-template(8211)"
       transform="matrix(4.8828125e-4,0,0,-4.8828125e-4,0,0)">
   <path
   d="M -4,459 H 1135 V 606 H -4 Z"
   id="path1154" />
  </g></defs><g
     inkscape:label="Layer 1"
     inkscape:groupmode="layer"
     id="layer1"><rect
       style="fill:#ffffff;stroke:none;stroke-width:10"
       id="rect669"
       width="264.58334"
       height="251.35416"
       x="0"
       y="0" /><text
       xml:space="preserve"
       style="font-size:15.875px;line-height:0.81;fill:#ff0000;stroke:#000000;stroke-width:0.094;stroke-dasharray:none;stroke-opacity:1"
       x="102.41028"
       y="220.55077"
       id="text238"><tspan
         sodipodi:role="line"
         id="tspan236"
         style="font-style:normal;font-variant:normal;font-weight:bold;font-stretch:normal;font-size:15.875px;font-family:sans-serif;-inkscape-font-specification:'sans-serif Bold';fill:#000000;stroke:#000000;stroke-width:0.094;stroke-dasharray:none;stroke-opacity:1"
         x="102.41028"
         y="220.55077">.bigb files</tspan></text><text
       xml:space="preserve"
       style="font-size:15.875px;line-height:0.81;fill:#000000;stroke:#000000;stroke-width:0.0940001;stroke-dasharray:none;stroke-opacity:1"
       x="52.012421"
       y="135.39322"
       id="text1973"><tspan
         sodipodi:role="line"
         id="tspan1971"
         style="stroke-width:0.094"
         x="52.012421"
         y="135.39322">--web</tspan></text><text
       xml:space="preserve"
       style="font-size:15.875px;line-height:0.81;fill:#000000;stroke:#000000;stroke-width:0.0940001;stroke-dasharray:none;stroke-opacity:1"
       x="171.97916"
       y="135.59897"
       id="text1977"><tspan
         sodipodi:role="line"
         id="tspan1975"
         style="stroke-width:0.094"
         x="171.97916"
         y="135.59897">--publish</tspan></text><text
       xml:space="preserve"
       style="font-size:11.1125px;line-height:0.81;fill:#000000;stroke:#000000;stroke-width:0.0940001;stroke-dasharray:none;stroke-opacity:1"
       x="19.20019"
       y="52.090519"
       id="text1801"><tspan
         sodipodi:role="line"
         id="tspan1799"
         style="font-style:normal;font-variant:normal;font-weight:bold;font-stretch:normal;font-size:11.1125px;font-family:sans-serif;-inkscape-font-specification:'sans-serif Bold';stroke-width:0.094"
         x="19.20019"
         y="52.090519">OurBigBook.com</tspan></text><text
       xml:space="preserve"
       style="font-size:14.5521px;line-height:0.81;fill:#000000;stroke:#000000;stroke-width:0.0940001;stroke-dasharray:none;stroke-opacity:1"
       x="13.229166"
       y="23.151056"
       id="text1801-2"><tspan
         sodipodi:role="line"
         id="tspan1799-7"
         style="font-style:normal;font-variant:normal;font-weight:bold;font-stretch:normal;font-size:14.5521px;font-family:sans-serif;-inkscape-font-specification:'sans-serif Bold';stroke-width:0.094"
         x="13.229166"
         y="23.151056">OurBigBook: two ways to publish</tspan></text><text
       xml:space="preserve"
       style="font-size:8.46667px;line-height:0.81;fill:#000000;stroke:#000000;stroke-width:0.0940001;stroke-dasharray:none;stroke-opacity:1"
       x="19.803436"
       y="67.310638"
       id="text1801-3"><tspan
         sodipodi:role="line"
         id="tspan1799-5"
         style="font-size:8.46667px;stroke-width:0.094"
         x="19.803436"
         y="67.310638">Topics, likes, comments</tspan></text><rect
       style="fill:none;stroke:#000000;stroke-width:1.98514;stroke-dasharray:none"
       id="rect453-5"
       width="105.84076"
       height="39.687496"
       x="13.221735"
       y="36.380226" /><rect
       style="fill:none;stroke:#000000;stroke-width:1.98514;stroke-dasharray:none"
       id="rect453-5-1"
       width="105.84076"
       height="39.687492"
       x="79.375"
       y="201.7448" /><text
       xml:space="preserve"
       style="font-size:8.20208px;line-height:0.81;fill:#000000;stroke:#000000;stroke-width:0.0940001;stroke-dasharray:none;stroke-opacity:1"
       x="152.18242"
       y="67.437637"
       id="text1801-3-2"><tspan
         sodipodi:role="line"
         id="tspan1799-5-9"
         style="font-size:8.20208px;stroke-width:0.094"
         x="152.18242"
         y="67.437637">Your domain, your rules</tspan></text><text
       xml:space="preserve"
       style="font-size:13.0678px;line-height:0.81;fill:#000000;stroke:#000000;stroke-width:0.0928531;stroke-dasharray:none;stroke-opacity:1"
       x="168.75049"
       y="53.392654"
       id="text1805"
       transform="scale(1.0123524,0.98779833)"><tspan
         sodipodi:role="line"
         style="font-style:normal;font-variant:normal;font-weight:bold;font-stretch:normal;font-size:13.0678px;font-family:sans-serif;-inkscape-font-specification:'sans-serif Bold';stroke-width:0.092853"
         x="168.75049"
         y="53.392654"
         id="tspan1807">HTML files</tspan></text><rect
       style="fill:none;stroke:#000000;stroke-width:1.98514;stroke-dasharray:none"
       id="rect453-5-6"
       width="105.84077"
       height="39.6875"
       x="145.51711"
       y="36.380226" /><path
       style="fill:#ff0000;stroke:#ff0000;stroke-width:0;stroke-dasharray:none;stroke-opacity:1"
       d="m 128.98065,188.51565 v -39.6875"
       id="path1072" /><text
       xml:space="preserve"
       style="font-size:15.875px;line-height:0.81;fill:#ff0000;stroke:none;stroke-width:0;stroke-dasharray:none;stroke-opacity:1"
       x="59.531258"
       y="238.125"
       id="text1191"><tspan
         sodipodi:role="line"
         id="tspan1189"
         style="stroke-width:0"
         x="59.531258"
         y="238.125" /></text><text
       xml:space="preserve"
       style="font-size:9.26042px;line-height:0.81;fill:#000000;stroke:none;stroke-width:0;stroke-dasharray:none;stroke-opacity:1"
       x="83.22998"
       y="235.02806"
       id="text1313"><tspan
         sodipodi:role="line"
         style="font-size:9.26042px;stroke-width:0"
         x="83.22998"
         y="235.02806"
         id="tspan1484">Text in your computer</tspan></text><path
       style="fill:#ff0000;stroke:#ff0000;stroke-width:10;stroke-dasharray:none;stroke-opacity:1;fill-opacity:1"
       d="m 132.29166,195.13023 v -42.9948"
       id="path1490"
       sodipodi:nodetypes="cc" /><path
       style="fill:#ff0000;stroke:#ff0000;stroke-width:10;stroke-dasharray:none;stroke-opacity:1;marker-end:url(#TriangleStart);fill-opacity:1"
       d="M 132.29166,155.44273 72.760445,95.911473"
       id="path2358"
       sodipodi:nodetypes="cc" /><path
       style="fill:#ff0000;stroke:#ff0000;stroke-width:10;stroke-dasharray:none;stroke-opacity:1;marker-end:url(#TriangleStart-3);fill-opacity:1"
       d="M 132.29166,155.44273 191.82291,95.911473"
       id="path2358-7"
       sodipodi:nodetypes="cc" /><text
       xml:space="preserve"
       style="font-size:11.9062px;fill:#000000;stroke:#ff0000;stroke-width:10;stroke-dasharray:none;stroke-opacity:1"
       x="13.229173"
       y="39.687504"
       id="text7010"><tspan
         sodipodi:role="line"
         id="tspan7008"
         style="stroke-width:10"
         x="13.229173"
         y="39.687504" /></text><text
       xml:space="preserve"
       style="font-size:11.9062px;fill:#000000;stroke:#ff0000;stroke-width:10;stroke-dasharray:none;stroke-opacity:1"
       x="19.843756"
       y="46.302086"
       id="text7764"><tspan
         sodipodi:role="line"
         id="tspan7762"
         style="stroke-width:10"
         x="19.843756"
         y="46.302086" /></text><text
       xml:space="preserve"
       style="font-style:normal;font-variant:normal;font-weight:bold;font-stretch:normal;font-size:9.26042px;font-family:sans-serif;-inkscape-font-specification:'sans-serif Bold';fill:#000000;stroke:#ff0000;stroke-width:10;stroke-dasharray:none;stroke-opacity:1"
       x="19.84375"
       y="13.229166"
       id="text9509"><tspan
         sodipodi:role="line"
         id="tspan9507"
         style="stroke-width:10"
         x="19.84375"
         y="13.229166" /></text><g
       id="g1534"
       transform="matrix(0.02895703,0,0,0.02895703,152.99374,41.391785)"><path
         fill="#e34f26"
         d="M 71,460 30,0 h 451 l -41,460 -185,52"
         id="path1516" /><path
         fill="#ef652a"
         d="M 256,472 405,431 440,37 H 256"
         id="path1518" /><path
         fill="#ebebeb"
         d="m 256,208 h -75 l -5,-58 h 80 V 94 h -1 -141 l 1,15 14,156 h 127 z m 0,147 h -1 l -63,-17 -4,-45 h -30 -26 l 7,89 116,32 h 1 z"
         id="path1520" /><path
         fill="#ffffff"
         d="m 255,208 v 57 h 70 l -7,73 -63,17 v 59 l 116,-32 1,-10 13,-149 2,-15 h -16 z m 0,-114 v 35 21 0 h 137 v 0 0 l 1,-12 3,-29 1,-15 z"
         id="path1522" /></g><g
       style="fill:none;stroke-width:8;stroke-linecap:round"
       id="g1945"
       transform="matrix(0.16152257,0,0,0.16152257,83.720423,207.05935)"><rect
         width="100"
         height="100"
         style="fill:#000000;stroke-width:0"
         id="rect1909"
         x="0"
         y="0" /><circle
         cx="32"
         cy="27"
         r="8"
         stroke="#88ccff"
         id="circle1911" /><g
         stroke="#ffff00"
         id="g1917"><line
           x1="10"
           y1="10"
           x2="10"
           y2="90"
           id="line1913" /><path
           d="M 10,90 C 55,95 55,45 10,60"
           id="path1915" /></g><g
         stroke="#00ff00"
         transform="matrix(-1,0,0,1,145,0)"
         id="g1927"><line
           x1="90"
           y1="10"
           x2="90"
           y2="90"
           id="line1919" /><path
           d="M 90,90 C 40,100 40,45 90,50"
           id="path1921" /><g
           transform="translate(0,-41)"
           id="g1925"><path
             d="M 90,90 C 45,95 45,45 90,50"
             id="path1923" /></g></g></g></g><metadata
     id="metadata1748"><rdf:RDF><cc:Work
         rdf:about=""><cc:license
           rdf:resource="http://creativecommons.org/licenses/by-sa/4.0/" /></cc:Work><cc:License
         rdf:about="http://creativecommons.org/licenses/by-sa/4.0/"><cc:permits
           rdf:resource="http://creativecommons.org/ns#Reproduction" /><cc:permits
           rdf:resource="http://creativecommons.org/ns#Distribution" /><cc:requires
           rdf:resource="http://creativecommons.org/ns#Notice" /><cc:requires
           rdf:resource="http://creativecommons.org/ns#Attribution" /><cc:permits
           rdf:resource="http://creativecommons.org/ns#DerivativeWorks" /><cc:requires
           rdf:resource="http://creativecommons.org/ns#ShareAlike" /></cc:License></rdf:RDF></metadata></svg>
