<?xml version="1.0" encoding="UTF-8" standalone="no"?>
<!-- Created with Inkscape (http://www.inkscape.org/) -->

<svg
   width="1000"
   height="950"
   viewBox="0 0 264.58333 251.35417"
   version="1.1"
   id="svg5"
   inkscape:version="1.2.2 (b0a8486541, 2022-12-01)"
   sodipodi:docname="bigb-publish-to-web-or-static-editor-logos.svg"
   xml:space="preserve"
   inkscape:export-filename="bigb-publish-to-web-or-static.png"
   inkscape:export-xdpi="96"
   inkscape:export-ydpi="96"
   xmlns:inkscape="http://www.inkscape.org/namespaces/inkscape"
   xmlns:sodipodi="http://sodipodi.sourceforge.net/DTD/sodipodi-0.dtd"
   xmlns="http://www.w3.org/2000/svg"
   xmlns:svg="http://www.w3.org/2000/svg"
   xmlns:rdf="http://www.w3.org/1999/02/22-rdf-syntax-ns#"
   xmlns:cc="http://creativecommons.org/ns#"
   xmlns:ooo="http://xml.openoffice.org/svg/export"><sodipodi:namedview
     id="namedview7"
     pagecolor="#ffffff"
     bordercolor="#000000"
     borderopacity="0.25"
     inkscape:showpageshadow="2"
     inkscape:pageopacity="0.0"
     inkscape:pagecheckerboard="0"
     inkscape:deskcolor="#d1d1d1"
     inkscape:document-units="mm"
     showgrid="true"
     inkscape:zoom="0.65784243"
     inkscape:cx="570.04532"
     inkscape:cy="494.79934"
     inkscape:window-width="1920"
     inkscape:window-height="1131"
     inkscape:window-x="0"
     inkscape:window-y="32"
     inkscape:window-maximized="1"
     inkscape:current-layer="layer1"><inkscape:grid
       type="xygrid"
       id="grid132"
       spacingx="3.3072916"
       spacingy="3.3072916"
       originx="0"
       originy="0" /></sodipodi:namedview><defs
     id="defs2"><marker
       style="overflow:visible"
       id="TriangleStart"
       refX="0"
       refY="0"
       orient="auto-start-reverse"
       inkscape:stockid="TriangleStart"
       markerWidth="2"
       markerHeight="6"
       viewBox="0 0 5.3244081 6.1553851"
       inkscape:isstock="true"
       inkscape:collect="always"
       preserveAspectRatio="xMidYMid"><path
         transform="scale(0.5)"
         style="fill:context-stroke;fill-rule:evenodd;stroke:context-stroke;stroke-width:1pt"
         d="M 5.77,0 -2.88,5 V -5 Z"
         id="path135" /></marker><inkscape:perspective
       sodipodi:type="inkscape:persp3d"
       inkscape:vp_x="0 : 119.0625 : 1"
       inkscape:vp_y="0 : 1000 : 0"
       inkscape:vp_z="264.58333 : 119.0625 : 1"
       inkscape:persp3d-origin="132.29166 : 74.965279 : 1"
       id="perspective1251" /><marker
       style="overflow:visible"
       id="TriangleStart-3"
       refX="0"
       refY="0"
       orient="auto-start-reverse"
       inkscape:stockid="TriangleStart"
       markerWidth="2"
       markerHeight="6"
       viewBox="0 0 5.3244081 6.1553851"
       inkscape:isstock="true"
       inkscape:collect="always"
       preserveAspectRatio="xMidYMid"><path
         transform="scale(0.5)"
         style="fill:context-stroke;fill-rule:evenodd;stroke:context-stroke;stroke-width:1pt"
         d="M 5.77,0 -2.88,5 V -5 Z"
         id="path135-6" /></marker><linearGradient
       id="linearGradient3802"
       y2="957.35999"
       gradientUnits="userSpaceOnUse"
       x2="80"
       gradientTransform="translate(2,-2)"
       y1="944.35999"
       x1="93"><stop
         id="stop3804"
         stop-color="#ccc"
         offset="0" /><stop
         id="stop3806"
         stop-color="#e6e6e6"
         offset="0.41879094" /><stop
         id="stop3808"
         stop-color="#fff"
         offset=".46933" /><stop
         id="stop3810"
         stop-color="#e6e6e6"
         offset="1" /></linearGradient><linearGradient
       id="linearGradient3794"
       y2="-112"
       gradientUnits="userSpaceOnUse"
       x2="-80"
       gradientTransform="translate(2,922.36)"
       y1="123"
       x1="105"><stop
         style="stop-color:#ffffff;stop-opacity:1"
         id="stop3796"
         stop-color="#e6e6e6"
         offset="0" /><stop
         id="stop3798"
         stop-color="#f9f9f9"
         offset="1" /></linearGradient><linearGradient
       x1="105"
       y1="123"
       gradientTransform="translate(2,922.36)"
       x2="-80"
       gradientUnits="userSpaceOnUse"
       y2="-112"
       id="linearGradient3046"><stop
         offset="0"
         stop-color="#e6e6e6"
         id="stop3602" /><stop
         offset="1"
         stop-color="#f9f9f9"
         id="stop3604" /></linearGradient><linearGradient
       x1="93"
       y1="944.35999"
       gradientTransform="translate(2,-2)"
       x2="80"
       gradientUnits="userSpaceOnUse"
       y2="957.35999"
       id="linearGradient3048"><stop
         offset="0"
         stop-color="#ccc"
         id="stop3610" /><stop
         offset=".22008"
         stop-color="#e6e6e6"
         id="stop3616" /><stop
         offset=".46933"
         stop-color="#fff"
         id="stop3618" /><stop
         offset="1"
         stop-color="#e6e6e6"
         id="stop3612" /></linearGradient><linearGradient
       id="linearGradient3928-8-0"><stop
         id="stop3930-2-5"
         style="stop-color:#7c7c7c"
         offset="0" /><stop
         id="stop3932-0-0"
         style="stop-color:#e6e3e3"
         offset="1" /></linearGradient><clipPath
       id="presentation_clip_path"
       clipPathUnits="userSpaceOnUse">
   <rect
   x="0"
   y="0"
   width="15375"
   height="17876"
   id="rect1121" />
  </clipPath><g
       ooo:slide="id1"
       ooo:id-list="id3 id4 id5 id6 id7 id8 id9 id10 id11 id12 id13 id14 id15 id16 id17"
       id="g1126" /><g
       id="bullet-char-template(57356)"
       transform="matrix(4.8828125e-4,0,0,-4.8828125e-4,0,0)">
   <path
   d="M 580,1141 1163,571 580,0 -4,571 Z"
   id="path1130" />
  </g><g
       id="bullet-char-template(57354)"
       transform="matrix(4.8828125e-4,0,0,-4.8828125e-4,0,0)">
   <path
   d="M 8,1128 H 1137 V 0 H 8 Z"
   id="path1133" />
  </g><g
       id="bullet-char-template(10146)"
       transform="matrix(4.8828125e-4,0,0,-4.8828125e-4,0,0)">
   <path
   d="M 174,0 602,739 174,1481 1456,739 Z M 1358,739 309,1346 659,739 Z"
   id="path1136" />
  </g><g
       id="bullet-char-template(10132)"
       transform="matrix(4.8828125e-4,0,0,-4.8828125e-4,0,0)">
   <path
   d="M 2015,739 1276,0 H 717 l 543,543 H 174 v 393 h 1086 l -543,545 h 557 z"
   id="path1139" />
  </g><g
       id="bullet-char-template(10007)"
       transform="matrix(4.8828125e-4,0,0,-4.8828125e-4,0,0)">
   <path
   d="m 0,-2 c -7,16 -16,29 -25,39 l 381,530 c -94,256 -141,385 -141,387 0,25 13,38 40,38 9,0 21,-2 34,-5 21,4 42,12 65,25 l 27,-13 111,-251 280,301 64,-25 24,25 c 21,-10 41,-24 62,-43 C 886,937 835,863 770,784 769,783 710,716 594,584 L 774,223 c 0,-27 -21,-55 -63,-84 l 16,-20 C 717,90 699,76 672,76 641,76 570,178 457,381 L 164,-76 c -22,-34 -53,-51 -92,-51 -42,0 -63,17 -64,51 -7,9 -10,24 -10,44 0,9 1,19 2,30 z"
   id="path1142" />
  </g><g
       id="bullet-char-template(10004)"
       transform="matrix(4.8828125e-4,0,0,-4.8828125e-4,0,0)">
   <path
   d="M 285,-33 C 182,-33 111,30 74,156 52,228 41,333 41,471 c 0,78 14,145 41,201 34,71 87,106 158,106 53,0 88,-31 106,-94 l 23,-176 c 8,-64 28,-97 59,-98 l 735,706 c 11,11 33,17 66,17 42,0 63,-15 63,-46 V 965 c 0,-36 -10,-64 -30,-84 L 442,47 C 390,-6 338,-33 285,-33 Z"
   id="path1145" />
  </g><g
       id="bullet-char-template(9679)"
       transform="matrix(4.8828125e-4,0,0,-4.8828125e-4,0,0)">
   <path
   d="M 813,0 C 632,0 489,54 383,161 276,268 223,411 223,592 c 0,181 53,324 160,431 106,107 249,161 430,161 179,0 323,-54 432,-161 108,-107 162,-251 162,-431 0,-180 -54,-324 -162,-431 C 1136,54 992,0 813,0 Z"
   id="path1148" />
  </g><g
       id="bullet-char-template(8226)"
       transform="matrix(4.8828125e-4,0,0,-4.8828125e-4,0,0)">
   <path
   d="m 346,457 c -73,0 -137,26 -191,78 -54,51 -81,114 -81,188 0,73 27,136 81,188 54,52 118,78 191,78 73,0 134,-26 185,-79 51,-51 77,-114 77,-187 0,-75 -25,-137 -76,-188 -50,-52 -112,-78 -186,-78 z"
   id="path1151" />
  </g><g
       id="bullet-char-template(8211)"
       transform="matrix(4.8828125e-4,0,0,-4.8828125e-4,0,0)">
   <path
   d="M -4,459 H 1135 V 606 H -4 Z"
   id="path1154" />
  </g><filter
       id="filter0_d"
       x="-8.39411"
       y="15.8291"
       width="116.727"
       height="92.2456"
       filterUnits="userSpaceOnUse"
       color-interpolation-filters="sRGB"><feFlood
         flood-opacity="0"
         result="BackgroundImageFix"
         id="feFlood750" /><feColorMatrix
         in="SourceAlpha"
         type="matrix"
         values="0 0 0 0 0 0 0 0 0 0 0 0 0 0 0 0 0 0 127 0"
         id="feColorMatrix752" /><feOffset
         id="feOffset754" /><feGaussianBlur
         stdDeviation="4.16667"
         id="feGaussianBlur756" /><feColorMatrix
         type="matrix"
         values="0 0 0 0 0 0 0 0 0 0 0 0 0 0 0 0 0 0 0.25 0"
         id="feColorMatrix758" /><feBlend
         mode="overlay"
         in2="BackgroundImageFix"
         result="effect1_dropShadow"
         id="feBlend760" /><feBlend
         mode="normal"
         in="SourceGraphic"
         in2="effect1_dropShadow"
         result="shape"
         id="feBlend762" /></filter><filter
       id="filter1_d"
       x="60.4167"
       y="-8.07558"
       width="47.9167"
       height="116.151"
       filterUnits="userSpaceOnUse"
       color-interpolation-filters="sRGB"><feFlood
         flood-opacity="0"
         result="BackgroundImageFix"
         id="feFlood765" /><feColorMatrix
         in="SourceAlpha"
         type="matrix"
         values="0 0 0 0 0 0 0 0 0 0 0 0 0 0 0 0 0 0 127 0"
         id="feColorMatrix767" /><feOffset
         id="feOffset769" /><feGaussianBlur
         stdDeviation="4.16667"
         id="feGaussianBlur771" /><feColorMatrix
         type="matrix"
         values="0 0 0 0 0 0 0 0 0 0 0 0 0 0 0 0 0 0 0.25 0"
         id="feColorMatrix773" /><feBlend
         mode="overlay"
         in2="BackgroundImageFix"
         result="effect1_dropShadow"
         id="feBlend775" /><feBlend
         mode="normal"
         in="SourceGraphic"
         in2="effect1_dropShadow"
         result="shape"
         id="feBlend777" /></filter><linearGradient
       id="paint0_linear"
       x1="49.9392"
       y1="0.257812"
       x2="49.9392"
       y2="99.7423"
       gradientUnits="userSpaceOnUse"><stop
         stop-color="white"
         id="stop780" /><stop
         offset="1"
         stop-color="white"
         stop-opacity="0"
         id="stop782" /></linearGradient></defs><g
     inkscape:label="Layer 1"
     inkscape:groupmode="layer"
     id="layer1"><rect
       style="fill:#ffffff;stroke:none;stroke-width:10"
       id="rect669"
       width="264.58334"
       height="251.35416"
       x="0"
       y="0"
       sodipodi:insensitive="true" /><text
       xml:space="preserve"
       style="font-size:15.875px;line-height:0.81;fill:#ff0000;stroke:#000000;stroke-width:0.094;stroke-dasharray:none;stroke-opacity:1"
       x="102.41028"
       y="220.55077"
       id="text238"><tspan
         sodipodi:role="line"
         id="tspan236"
         style="font-style:normal;font-variant:normal;font-weight:bold;font-stretch:normal;font-size:15.875px;font-family:sans-serif;-inkscape-font-specification:'sans-serif Bold';fill:#000000;stroke:#000000;stroke-width:0.094;stroke-dasharray:none;stroke-opacity:1"
         x="102.41028"
         y="220.55077">.bigb files</tspan></text><text
       xml:space="preserve"
       style="font-size:15.875px;line-height:0.81;fill:#000000;stroke:#000000;stroke-width:0.0940001;stroke-dasharray:none;stroke-opacity:1"
       x="52.012421"
       y="135.39322"
       id="text1973"><tspan
         sodipodi:role="line"
         id="tspan1971"
         style="stroke-width:0.094"
         x="52.012421"
         y="135.39322">--web</tspan></text><text
       xml:space="preserve"
       style="font-size:15.875px;line-height:0.81;fill:#000000;stroke:#000000;stroke-width:0.0940001;stroke-dasharray:none;stroke-opacity:1"
       x="171.97916"
       y="135.59897"
       id="text1977"><tspan
         sodipodi:role="line"
         id="tspan1975"
         style="stroke-width:0.094"
         x="171.97916"
         y="135.59897">--publish</tspan></text><text
       xml:space="preserve"
       style="font-size:11.1125px;line-height:0.81;fill:#000000;stroke:#000000;stroke-width:0.0940001;stroke-dasharray:none;stroke-opacity:1"
       x="19.20019"
       y="52.090519"
       id="text1801"><tspan
         sodipodi:role="line"
         id="tspan1799"
         style="font-style:normal;font-variant:normal;font-weight:bold;font-stretch:normal;font-size:11.1125px;font-family:sans-serif;-inkscape-font-specification:'sans-serif Bold';stroke-width:0.094"
         x="19.20019"
         y="52.090519">OurBigBook.com</tspan></text><text
       xml:space="preserve"
       style="font-size:14.5521px;line-height:0.81;fill:#000000;stroke:#000000;stroke-width:0.0940001;stroke-dasharray:none;stroke-opacity:1"
       x="13.229166"
       y="23.151056"
       id="text1801-2"><tspan
         sodipodi:role="line"
         id="tspan1799-7"
         style="font-style:normal;font-variant:normal;font-weight:bold;font-stretch:normal;font-size:14.5521px;font-family:sans-serif;-inkscape-font-specification:'sans-serif Bold';stroke-width:0.094"
         x="13.229166"
         y="23.151056">OurBigBook: two ways to publish</tspan></text><text
       xml:space="preserve"
       style="font-size:8.46667px;line-height:0.81;fill:#000000;stroke:#000000;stroke-width:0.0940001;stroke-dasharray:none;stroke-opacity:1"
       x="19.803436"
       y="67.310638"
       id="text1801-3"><tspan
         sodipodi:role="line"
         id="tspan1799-5"
         style="font-size:8.46667px;stroke-width:0.094"
         x="19.803436"
         y="67.310638">Topics, likes, comments</tspan></text><rect
       style="fill:none;stroke:#000000;stroke-width:1.98514;stroke-dasharray:none"
       id="rect453-5"
       width="105.84076"
       height="39.687496"
       x="13.221735"
       y="36.380226" /><rect
       style="fill:none;stroke:#000000;stroke-width:1.98514;stroke-dasharray:none"
       id="rect453-5-1"
       width="105.84076"
       height="39.687492"
       x="79.375"
       y="201.7448" /><text
       xml:space="preserve"
       style="font-size:8.20208px;line-height:0.81;fill:#000000;stroke:#000000;stroke-width:0.0940001;stroke-dasharray:none;stroke-opacity:1"
       x="152.18242"
       y="67.437637"
       id="text1801-3-2"><tspan
         sodipodi:role="line"
         id="tspan1799-5-9"
         style="font-size:8.20208px;stroke-width:0.094"
         x="152.18242"
         y="67.437637">Your domain, your rules</tspan></text><text
       xml:space="preserve"
       style="font-size:13.0678px;line-height:0.81;fill:#000000;stroke:#000000;stroke-width:0.0928531;stroke-dasharray:none;stroke-opacity:1"
       x="168.75049"
       y="53.392654"
       id="text1805"
       transform="scale(1.0123524,0.98779833)"><tspan
         sodipodi:role="line"
         style="font-style:normal;font-variant:normal;font-weight:bold;font-stretch:normal;font-size:13.0678px;font-family:sans-serif;-inkscape-font-specification:'sans-serif Bold';stroke-width:0.092853"
         x="168.75049"
         y="53.392654"
         id="tspan1807">HTML files</tspan></text><rect
       style="fill:none;stroke:#000000;stroke-width:1.98514;stroke-dasharray:none"
       id="rect453-5-6"
       width="105.84077"
       height="39.6875"
       x="145.51711"
       y="36.380226" /><path
       style="fill:#ff0000;stroke:#ff0000;stroke-width:0;stroke-dasharray:none;stroke-opacity:1"
       d="m 128.98065,188.51565 v -39.6875"
       id="path1072" /><text
       xml:space="preserve"
       style="font-size:15.875px;line-height:0.81;fill:#ff0000;stroke:none;stroke-width:0;stroke-dasharray:none;stroke-opacity:1"
       x="59.531258"
       y="238.125"
       id="text1191"><tspan
         sodipodi:role="line"
         id="tspan1189"
         style="stroke-width:0"
         x="59.531258"
         y="238.125" /></text><text
       xml:space="preserve"
       style="font-size:9.26042px;line-height:0.81;fill:#000000;stroke:none;stroke-width:0;stroke-dasharray:none;stroke-opacity:1"
       x="83.22998"
       y="235.02806"
       id="text1313"><tspan
         sodipodi:role="line"
         style="font-size:9.26042px;stroke-width:0"
         x="83.22998"
         y="235.02806"
         id="tspan1484">Text in your computer</tspan></text><path
       style="fill:#ff0000;stroke:#ff0000;stroke-width:10;stroke-dasharray:none;stroke-opacity:1;fill-opacity:1"
       d="m 132.29166,195.13023 v -42.9948"
       id="path1490"
       sodipodi:nodetypes="cc" /><path
       style="fill:#ff0000;stroke:#ff0000;stroke-width:10;stroke-dasharray:none;stroke-opacity:1;marker-end:url(#TriangleStart);fill-opacity:1"
       d="M 132.29166,155.44273 72.760445,95.911473"
       id="path2358"
       sodipodi:nodetypes="cc" /><path
       style="fill:#ff0000;stroke:#ff0000;stroke-width:10;stroke-dasharray:none;stroke-opacity:1;marker-end:url(#TriangleStart-3);fill-opacity:1"
       d="M 132.29166,155.44273 191.82291,95.911473"
       id="path2358-7"
       sodipodi:nodetypes="cc" /><text
       xml:space="preserve"
       style="font-size:11.9062px;fill:#000000;stroke:#ff0000;stroke-width:10;stroke-dasharray:none;stroke-opacity:1"
       x="13.229173"
       y="39.687504"
       id="text7010"><tspan
         sodipodi:role="line"
         id="tspan7008"
         style="stroke-width:10"
         x="13.229173"
         y="39.687504" /></text><text
       xml:space="preserve"
       style="font-size:11.9062px;fill:#000000;stroke:#ff0000;stroke-width:10;stroke-dasharray:none;stroke-opacity:1"
       x="19.843756"
       y="46.302086"
       id="text7764"><tspan
         sodipodi:role="line"
         id="tspan7762"
         style="stroke-width:10"
         x="19.843756"
         y="46.302086" /></text><text
       xml:space="preserve"
       style="font-style:normal;font-variant:normal;font-weight:bold;font-stretch:normal;font-size:9.26042px;font-family:sans-serif;-inkscape-font-specification:'sans-serif Bold';fill:#000000;stroke:#ff0000;stroke-width:10;stroke-dasharray:none;stroke-opacity:1"
       x="19.84375"
       y="13.229166"
       id="text9509"><tspan
         sodipodi:role="line"
         id="tspan9507"
         style="stroke-width:10"
         x="19.84375"
         y="13.229166" /></text><g
       id="g1534"
       transform="matrix(0.02895703,0,0,0.02895703,152.99374,41.391785)"><path
         fill="#e34f26"
         d="M 71,460 30,0 h 451 l -41,460 -185,52"
         id="path1516" /><path
         fill="#ef652a"
         d="M 256,472 405,431 440,37 H 256"
         id="path1518" /><path
         fill="#ebebeb"
         d="m 256,208 h -75 l -5,-58 h 80 V 94 h -1 -141 l 1,15 14,156 h 127 z m 0,147 h -1 l -63,-17 -4,-45 h -30 -26 l 7,89 116,32 h 1 z"
         id="path1520" /><path
         fill="#ffffff"
         d="m 255,208 v 57 h 70 l -7,73 -63,17 v 59 l 116,-32 1,-10 13,-149 2,-15 h -16 z m 0,-114 v 35 21 0 h 137 v 0 0 l 1,-12 3,-29 1,-15 z"
         id="path1522" /></g><g
       style="fill:none;stroke-width:8;stroke-linecap:round"
       id="g1945"
       transform="matrix(0.16152257,0,0,0.16152257,83.720423,207.05935)"><rect
         width="100"
         height="100"
         style="fill:#000000;stroke-width:0"
         id="rect1909"
         x="0"
         y="0" /><circle
         cx="32"
         cy="27"
         r="8"
         stroke="#88ccff"
         id="circle1911" /><g
         stroke="#ffff00"
         id="g1917"><line
           x1="10"
           y1="10"
           x2="10"
           y2="90"
           id="line1913" /><path
           d="M 10,90 C 55,95 55,45 10,60"
           id="path1915" /></g><g
         stroke="#00ff00"
         transform="matrix(-1,0,0,1,145,0)"
         id="g1927"><line
           x1="90"
           y1="10"
           x2="90"
           y2="90"
           id="line1919" /><path
           d="M 90,90 C 40,100 40,45 90,50"
           id="path1921" /><g
           transform="translate(0,-41)"
           id="g1925"><path
             d="M 90,90 C 45,95 45,45 90,50"
             id="path1923" /></g></g></g><g
       id="g880"
       transform="translate(56.061665,-75.702701)"><text
         xml:space="preserve"
         style="font-size:9.26042px;line-height:0.81;fill:#000000;stroke:none;stroke-width:0;stroke-dasharray:none;stroke-opacity:1"
         x="-48.652908"
         y="214.47412"
         id="text1313-6-5"><tspan
           sodipodi:role="line"
           style="font-size:9.26042px;stroke-width:0"
           x="-48.652908"
           y="214.47412"
           id="tspan1426-3">VS Code</tspan></text><g
         style="fill:none"
         id="g818"
         transform="matrix(0.26609696,0,0,0.26609696,-46.5623,175.92035)"><g
           mask="url(#mask0)"
           id="g748"><path
             d="M 96.4614,10.7962 75.8569,0.875542 C 73.4719,-0.272773 70.6217,0.211611 68.75,2.08333 L 1.29858,63.5832 c -1.814273,1.6541 -1.812187,4.5105 0.0045,6.162 l 5.50964,5.0088 c 1.48521,1.3502 3.72198,1.4496 5.32108,0.2365 L 93.3609,13.3699 C 96.086,11.3026 100,13.2462 100,16.6667 v -0.2392 c 0,-2.401 -1.3754,-4.5897 -3.5386,-5.6313 z"
             fill="#0065a9"
             id="path734" /><g
             filter="url(#filter0_d)"
             id="g738"><path
               d="m 96.4614,89.2038 -20.6045,9.9207 c -2.385,1.1485 -5.2352,0.6639 -7.1069,-1.2078 L 1.29858,36.4169 c -1.814273,-1.6542 -1.812187,-4.5106 0.0045,-6.1621 L 6.81272,25.246 C 8.29793,23.8958 10.5347,23.7964 12.1338,25.0095 L 93.3609,86.6301 C 96.086,88.6974 100,86.7538 100,83.3334 v 0.2392 c 0,2.4009 -1.3754,4.5896 -3.5386,5.6312 z"
               fill="#007acc"
               id="path736" /></g><g
             filter="url(#filter1_d)"
             id="g742"><path
               d="M 75.8578,99.1263 C 73.4721,100.274 70.6219,99.7885 68.75,97.9166 71.0564,100.223 75,98.5895 75,95.3278 V 4.67213 C 75,1.41039 71.0564,-0.223106 68.75,2.08329 70.6219,0.211402 73.4721,-0.273666 75.8578,0.873633 L 96.4587,10.7807 C 98.6234,11.8217 100,14.0112 100,16.4132 v 67.1739 c 0,2.402 -1.3766,4.5915 -3.5414,5.6325 z"
               fill="#1f9cf0"
               id="path740" /></g><g
             style="mix-blend-mode:overlay"
             opacity="0.25"
             id="g746"><path
               fill-rule="evenodd"
               clip-rule="evenodd"
               d="m 70.8511,99.3171 c 1.575,0.6135 3.371,0.5742 4.9606,-0.1907 L 96.4,89.2197 c 2.1634,-1.041 3.5392,-3.2305 3.5392,-5.6326 V 16.4133 c 0,-2.4021 -1.3757,-4.5916 -3.5391,-5.6326 L 75.8117,0.873695 C 73.7255,-0.13019 71.2838,0.115699 69.4527,1.44688 69.1912,1.63705 68.942,1.84937 68.7082,2.08335 L 29.2943,38.0414 12.1264,25.0096 C 10.5283,23.7964 8.29285,23.8959 6.80855,25.246 l -5.5063,5.0088 c -1.815584,1.6516 -1.817665,4.5079 -0.0045,6.1621 L 16.1863,50 1.29775,63.5832 c -1.813165,1.6542 -1.811084,4.5105 0.0045,6.162 l 5.5063,5.0088 c 1.4843,1.3502 3.71975,1.4496 5.31785,0.2365 L 29.2943,61.9586 68.7082,97.9167 c 0.6235,0.6238 1.3556,1.0937 2.1429,1.4004 z M 74.9544,27.2989 45.0483,50 74.9544,72.7012 Z"
               fill="url(#paint0_linear)"
               id="path744"
               style="fill:url(#paint0_linear)" /></g></g></g></g><g
       id="g867"
       transform="translate(1.0233434,1.5687318)"><text
         xml:space="preserve"
         style="font-size:9.26042px;line-height:0.81;fill:#000000;stroke:none;stroke-width:0;stroke-dasharray:none;stroke-opacity:1"
         x="14.522437"
         y="188.36359"
         id="text1313-6"><tspan
           sodipodi:role="line"
           style="font-size:9.26042px;stroke-width:0"
           x="14.522437"
           y="188.36359"
           id="tspan1426">Vim</tspan></text><g
         id="g3699"
         transform="matrix(0.08245373,0,0,0.07500567,2.1235923,138.84998)"><path
           id="path2836"
           d="M 260.50744,170.69515 105.98412,340.79094 259.8636,510.178 414.38691,340.08221 Z"
           style="fill:#019833;fill-opacity:1;stroke:#000000;stroke-width:0.945716px;stroke-linecap:butt;stroke-linejoin:miter;stroke-opacity:1" /><path
           id="path2838"
           d="M 259.8636,171.40389 V 156.52051 L 91.819492,341.49967 h 14.164628 z"
           style="fill:#66fe98;fill-opacity:1;stroke:#000000;stroke-width:0.945716px;stroke-linecap:butt;stroke-linejoin:miter;stroke-opacity:1" /><path
           style="fill:#45fe02;fill-opacity:1;stroke:#000000;stroke-width:0.945716px;stroke-linecap:butt;stroke-linejoin:miter;stroke-opacity:1"
           d="m 259.47729,171.40389 v -14.88338 l 168.0441,184.97916 h -14.16463 z"
           id="path2840" /><path
           style="fill:#017d17;fill-opacity:1;stroke:#000000;stroke-width:0.945716px;stroke-linecap:butt;stroke-linejoin:miter;stroke-opacity:1"
           d="M 259.8636,511.17022 V 526.0536 L 91.819492,341.07444 h 14.164628 z"
           id="path2842" /><path
           id="path3650"
           d="m 122.99448,175.30643 h 108.35396 l 6.60139,7.26665 v 22.30116 l -5.23559,7.01608 H 220.87725 V 322.64438 L 322.85744,211.89032 H 306.0125 l -5.9185,-7.01608 v -23.55403 l 5.46323,-5.51264 h 109.71976 l 5.46322,6.01379 v 22.05058 L 172.61878,484.01452 H 144.39212 L 136.22179,478.822 V 210.88803 h -13.68257 l -5.00795,-5.51264 v -23.55403 z"
           style="fill:none;stroke:#000000;stroke-width:18.9143;stroke-linecap:butt;stroke-linejoin:miter;stroke-miterlimit:4;stroke-dasharray:none;stroke-opacity:1" /><path
           id="path2844"
           d="M 259.47729,511.17022 V 526.0536 L 427.52139,341.07444 H 413.35676 Z"
           style="fill:#005d04;fill-opacity:1;stroke:#000000;stroke-width:0.945716px;stroke-linecap:butt;stroke-linejoin:miter;stroke-opacity:1" /><path
           style="fill:none;stroke:#000000;stroke-width:5.67429;stroke-linecap:butt;stroke-linejoin:miter;stroke-miterlimit:4;stroke-dasharray:none;stroke-opacity:1"
           d="M 259.41018,155.14848 90.734026,340.82339 258.70737,525.72467 427.38353,340.04975 Z"
           id="path2846" /><path
           id="path3640"
           d="m 232.50008,186.64163 6.11655,-3.54366 -6.27751,-6.91014 H 123.04607 l -5.55319,6.11281 v 23.1224 l 6.15679,6.77725 2.93756,-6.77725 -3.86308,-4.2524 v -16.30085 l 2.89731,-2.83492 H 229.9247 Z"
           style="fill:#fefefe;fill-opacity:1;stroke:#000000;stroke-width:0.945716px;stroke-linecap:butt;stroke-linejoin:miter;stroke-opacity:1" /><path
           transform="matrix(0.90138601,0,0,0.99222542,-437.42287,-185.30615)"
           d="m 828.9375,369.5 -4.28125,4.28125 V 389.5 l 3.75,3.75 h 19.8125 v 15.1875 L 717.15625,541.28125 V 393.4375 h 21.78125 l 4.46875,-4.46875 V 373.0625 l -4.125,-3.1875 h -114.625 l -3.75,3.75 v 16.25 l 3.8125,3.8125 h 19.9375 v 272.25 l 3.75,3.75 H 671.0625 L 945.71875,386.28125 v -12.5 L 941.4375,369.5 Z"
           id="path3632"
           style="fill:none;stroke:#000000;stroke-width:1px;stroke-linecap:butt;stroke-linejoin:miter;stroke-opacity:1" /><path
           id="path3646"
           d="m 143.48158,204.87424 v 270.62073 l 3.18688,4.0092 -2.49916,5.24301 -7.06148,-7.74876 v -265.1081 z"
           style="fill:#fefefe;fill-opacity:1;stroke:#000000;stroke-width:0.945716px;stroke-linecap:butt;stroke-linejoin:miter;stroke-opacity:1" /><path
           id="path3644"
           d="m 125.82451,204.87424 -1.82108,6.51494 h 13.2028 l 7.2843,-6.51494 z"
           style="fill:#808080;fill-opacity:1;stroke:#000000;stroke-width:0.945716px;stroke-linecap:butt;stroke-linejoin:miter;stroke-opacity:1" /><path
           id="path3638"
           d="m 307.18636,212.19144 2.89731,-6.55577 -4.18501,-4.2524 v -14.52901 l 4.82886,-5.31551 H 411.4896 l 3.86308,5.66987 5.4727,-4.2524 -5.63366,-6.20141 H 306.86443 l -5.39221,5.93564 v 23.29957 l 5.59342,5.80276 m -87.54309,111.87785 -10.52288,28.10566 118.7898,-131.1155 v -15.59211 z"
           style="fill:#fefefe;fill-opacity:1;stroke:#000000;stroke-width:0.945716px;stroke-linecap:butt;stroke-linejoin:miter;stroke-opacity:1" /><path
           id="path3642"
           d="m 232.25896,185.83056 5.2356,-3.75862 v 22.8023 l -6.03231,6.64023 h -11.72317 v 112.38277 l -10.69882,27.81381 V 204.87424 h 19.57656 l 3.64214,-3.25747 z"
           style="fill:#808080;fill-opacity:1;stroke:#000000;stroke-width:0.945716px;stroke-linecap:butt;stroke-linejoin:miter;stroke-opacity:1" /><path
           transform="matrix(0.90138601,0,0,0.99222542,-437.42287,-185.30615)"
           d="m 828.9375,369.5 -4.28125,4.28125 V 389.5 l 3.75,3.75 h 19.8125 v 15.1875 L 717.15625,541.28125 V 393.4375 h 21.78125 l 4.46875,-4.46875 V 373.0625 l -4.125,-3.1875 h -114.625 l -3.75,3.75 v 16.25 l 3.8125,3.8125 h 19.9375 v 272.25 l 3.75,3.75 H 671.0625 L 945.71875,386.28125 v -12.5 L 941.4375,369.5 Z"
           id="path3622"
           style="fill:#cccccc;fill-opacity:1;stroke:#000000;stroke-width:1px;stroke-linecap:butt;stroke-linejoin:miter;stroke-opacity:1" /><path
           id="path3636"
           d="m 415.35268,185.9329 5.49849,-3.49448 v 21.92152 L 171.46006,484.88124 H 144.9826 l 2.52966,-5.5331 h 20.28119 L 415.03076,198.33573 Z"
           style="fill:#808080;fill-opacity:1;stroke:#000000;stroke-width:0.945716px;stroke-linecap:butt;stroke-linejoin:miter;stroke-opacity:1" /><path
           id="path3652"
           d="m 327.29631,205.25009 -5.57703,6.38966 h -14.56861 l 3.41452,-6.38966 c 0.11382,0 16.73112,0 16.73112,0 z"
           style="fill:#808080;fill-opacity:1;stroke:#000000;stroke-width:0.945716px;stroke-linecap:butt;stroke-linejoin:miter;stroke-opacity:1" /><g
           transform="matrix(0.90138601,0,0,0.99222542,-92.530288,-192.23791)"
           id="g3673"><path
             style="fill:#cccccc;fill-opacity:1;stroke:#000000;stroke-width:8;stroke-linecap:butt;stroke-linejoin:miter;stroke-miterlimit:10;stroke-dasharray:none;stroke-opacity:1"
             id="path3671"
             d="m 399.78125,560 a 1.2330102,1.2330102 0 0 0 -0.5625,0.28125 l -5.3125,4.5625 A 1.2330102,1.2330102 0 0 0 393.5625,565.375 L 388.25,580.25 a 1.2330102,1.2330102 0 0 0 0.28125,1.28125 l 4.0625,4.0625 a 1.2330102,1.2330102 0 0 0 0.875,0.34375 H 409.875 a 1.2330102,1.2330102 0 0 0 0.875,-0.34375 l 4.28125,-4.3125 a 1.2330102,1.2330102 0 0 0 0.3125,-0.53125 l 4.5625,-15.65625 a 1.2330102,1.2330102 0 0 0 -0.3125,-1.21875 l -3.53125,-3.53125 A 1.2330102,1.2330102 0 0 0 415.1875,560 h -15.15625 a 1.2330102,1.2330102 0 0 0 -0.25,0 z m -30.0625,41.9375 a 1.2330102,1.2330102 0 0 0 -0.9375,0.90625 l -2.03125,8.0625 a 1.2330102,1.2330102 0 0 0 1.1875,1.53125 h 9.65625 l -23.9375,68.34375 a 1.2330102,1.2330102 0 0 0 1.15625,1.625 h 34.84375 a 1.2330102,1.2330102 0 0 0 1.1875,-0.84375 l 2.28125,-7.34375 a 1.2330102,1.2330102 0 0 0 -1.1875,-1.59375 h -7.875 L 407.75,603.5625 a 1.2330102,1.2330102 0 0 0 -1.15625,-1.625 h -36.625 a 1.2330102,1.2330102 0 0 0 -0.25,0 z m 110.875,0.25 a 1.2330102,1.2330102 0 0 0 -0.6875,0.40625 l -7.25,8.1875 H 461.125 l -7.6875,-7.96875 a 1.2330102,1.2330102 0 0 0 -0.875,-0.375 H 425.03125 A 1.2330102,1.2330102 0 0 0 423.875,603.25 l -2.53125,7.5625 a 1.2330102,1.2330102 0 0 0 1.15625,1.625 h 7.375 l -22.9375,67.59375 a 1.2330102,1.2330102 0 0 0 1.15625,1.625 h 29.3125 a 1.2330102,1.2330102 0 0 0 1.15625,-0.8125 l 2.25,-6.59375 a 1.2330102,1.2330102 0 0 0 -1.15625,-1.625 h -5.125 l 14.625,-46.03125 H 475.625 l -16.6875,53.46875 a 1.2330102,1.2330102 0 0 0 1.1875,1.59375 h 28.28125 a 1.2330102,1.2330102 0 0 0 1.125,-0.75 l 2.53125,-6.0625 a 1.2330102,1.2330102 0 0 0 -1.125,-1.6875 h -5.125 l 14.875,-46.8125 h 25.1875 l -16.9375,53.71875 a 1.2330102,1.2330102 0 0 0 1.1875,1.59375 h 31.0625 a 1.2330102,1.2330102 0 0 0 1.15625,-0.78125 l 2.53125,-6.59375 a 1.2330102,1.2330102 0 0 0 -1.15625,-1.65625 h -6.15625 l 18.71875,-60.78125 a 1.2330102,1.2330102 0 0 0 -0.1875,-1.125 l -5.8125,-7.8125 a 1.2330102,1.2330102 0 0 0 -1,-0.46875 H 527.0625 a 1.2330102,1.2330102 0 0 0 -0.90625,0.375 l -7,7.6875 h -12.25 l -7.25,-7.9375 a 1.2330102,1.2330102 0 0 0 -0.90625,-0.375 h -17.90625 a 1.2330102,1.2330102 0 0 0 -0.25,0 z" /><path
             d="m 400.03125,561.21875 -5.3125,4.5625 -5.3125,14.875 4.0625,4.0625 H 409.875 l 4.28125,-4.3125 4.5625,-15.65625 -3.53125,-3.53125 z m -30.0625,41.9375 -2.03125,8.0625 h 11.375 l -24.5,69.96875 h 34.84375 l 2.28125,-7.34375 h -9.59375 l 24.25,-70.6875 z m 110.875,0.25 L 473.25,612 h -12.625 l -8.0625,-8.34375 h -27.53125 l -2.53125,7.5625 h 9.09375 l -23.5,69.21875 h 29.3125 l 2.25,-6.59375 h -6.8125 L 448.25,625.375 h 29.0625 l -17.1875,55.0625 h 28.28125 l 2.53125,-6.0625 h -6.8125 l 15.65625,-49.25 h 27.78125 l -17.4375,55.3125 h 31.0625 l 2.53125,-6.59375 H 535.875 l 19.21875,-62.375 -5.8125,-7.8125 H 527.0625 l -7.34375,8.0625 h -13.375 l -7.59375,-8.3125 z"
             id="path3665"
             style="fill:#cccccc;fill-opacity:1;stroke:#000000;stroke-width:1;stroke-linecap:butt;stroke-linejoin:miter;stroke-miterlimit:10;stroke-dasharray:none;stroke-opacity:1" /></g></g></g><g
       id="g889"
       transform="translate(0.7796243,102.4878)"><text
         xml:space="preserve"
         style="font-size:9.26042px;line-height:0.81;fill:#000000;stroke:none;stroke-width:0;stroke-dasharray:none;stroke-opacity:1"
         x="11.844714"
         y="139.5477"
         id="text1313-6-3"><tspan
           sodipodi:role="line"
           style="font-size:9.26042px;stroke-width:0"
           x="11.844714"
           y="139.5477"
           id="tspan787">Bash</tspan></text><g
         transform="matrix(0.3214261,0,0,0.3214261,10.057902,96.058531)"
         id="g398"
         style="fill:none;fill-rule:evenodd;stroke:none;stroke-width:1"><path
           d="M 73.9497,18.7117 45.3127,1.7127 c -3.418,-2.029 -7.631,-2.029 -11.049,0 l -28.637,16.999 c -3.417,2.029 -5.523,5.778 -5.523,9.836 v 33.998 c 0,4.057 2.106,7.808 5.524,9.837 l 28.637,16.996 c 1.709,1.015 3.615,1.521 5.524,1.521 1.908,0 3.814,-0.506 5.523,-1.521 l 28.637,-16.996 c 3.418,-2.029 5.525,-5.78 5.525,-9.837 v -33.998 c 0,-4.058 -2.107,-7.807 -5.524,-9.836 z"
           id="Fill-2"
           fill="#fefefe" /><path
           d="M 35.2656,87.6382 6.6286,70.6422 c -2.801,-1.663 -4.541,-4.765 -4.541,-8.097 v -33.997 c 0,-3.332 1.74,-6.434 4.54,-8.096 l 28.638,-16.999 c 1.373,-0.815 2.937,-1.246 4.523,-1.246 1.585,0 3.149,0.431 4.523,1.246 l 28.637,16.999 c 2.36,1.401 3.952,3.827 4.4,6.548 -0.95,-2.027 -3.092,-2.578 -5.588,-1.12 l -27.092,16.734 c -3.378,1.975 -5.869,4.191 -5.871,8.264 v 33.383 c -0.002,2.439 0.983,4.019 2.496,4.477 -0.497,0.086 -0.998,0.146 -1.505,0.146 -1.586,0 -3.15,-0.431 -4.523,-1.246 m 38.684,-68.927 -28.637,-16.998 c -1.709,-1.015 -3.617,-1.522 -5.524,-1.522 -1.908,0 -3.816,0.507 -5.525,1.522 l -28.637,16.998 c -3.417,2.029 -5.523,5.779 -5.523,9.837 v 33.997 c 0,4.057 2.106,7.808 5.524,9.837 l 28.637,16.997 c 1.71,1.014 3.616,1.521 5.524,1.521 1.908,0 3.814,-0.507 5.523,-1.521 l 28.638,-16.997 c 3.418,-2.029 5.524,-5.78 5.524,-9.837 v -33.997 c 0,-4.058 -2.106,-7.808 -5.524,-9.837"
           id="Fill-4"
           fill="#3e474a" /><path
           d="m 66.4428,65.8321 -7.131,4.268 c -0.189,0.11 -0.328,0.234 -0.329,0.461 v 1.866 c 0,0.228 0.153,0.323 0.342,0.212 l 7.241,-4.401 c 0.189,-0.11 0.218,-0.321 0.219,-0.548 v -1.646 c 0,-0.227 -0.153,-0.322 -0.342,-0.212"
           id="Fill-6"
           fill="#47b353" /><path
           d="m 51.258,50.1254 c 0.231,-0.117 0.421,0.027 0.424,0.329 l 0.024,2.467 c 1.033,-0.411 1.93,-0.521 2.743,-0.333 0.176,0.047 0.254,0.287 0.182,0.572 l -0.543,2.186 c -0.042,0.165 -0.135,0.332 -0.247,0.436 -0.047,0.046 -0.095,0.082 -0.143,0.106 -0.073,0.037 -0.145,0.049 -0.214,0.035 -0.371,-0.084 -1.253,-0.277 -2.641,0.426 -1.456,0.737 -1.965,2.002 -1.955,2.941 0.012,1.121 0.587,1.461 2.573,1.495 2.646,0.044 3.789,1.2 3.817,3.865 0.027,2.617 -1.37,5.427 -3.507,7.149 l 0.047,2.442 c 0.003,0.294 -0.188,0.631 -0.419,0.748 l -1.446,0.833 c -0.232,0.117 -0.422,-0.027 -0.425,-0.321 l -0.025,-2.402 c -1.239,0.515 -2.494,0.639 -3.296,0.317 -0.151,-0.059 -0.216,-0.282 -0.156,-0.536 l 0.524,-2.208 c 0.042,-0.174 0.134,-0.348 0.259,-0.459 0.044,-0.043 0.09,-0.076 0.136,-0.099 0.083,-0.042 0.164,-0.051 0.233,-0.025 0.864,0.291 1.969,0.155 3.032,-0.383 1.35,-0.683 2.253,-2.06 2.239,-3.428 -0.013,-1.241 -0.685,-1.757 -2.319,-1.769 -2.08,0.006 -4.019,-0.404 -4.051,-3.466 -0.026,-2.521 1.285,-5.144 3.36,-6.803 l -0.026,-2.465 c -0.003,-0.303 0.182,-0.636 0.42,-0.756 z"
           id="Fill-8"
           fill="#fefefe" /></g></g></g><metadata
     id="metadata1748"><rdf:RDF><cc:Work
         rdf:about=""><cc:license
           rdf:resource="http://creativecommons.org/licenses/by-sa/4.0/" /></cc:Work><cc:License
         rdf:about="http://creativecommons.org/licenses/by-sa/4.0/"><cc:permits
           rdf:resource="http://creativecommons.org/ns#Reproduction" /><cc:permits
           rdf:resource="http://creativecommons.org/ns#Distribution" /><cc:requires
           rdf:resource="http://creativecommons.org/ns#Notice" /><cc:requires
           rdf:resource="http://creativecommons.org/ns#Attribution" /><cc:permits
           rdf:resource="http://creativecommons.org/ns#DerivativeWorks" /><cc:requires
           rdf:resource="http://creativecommons.org/ns#ShareAlike" /></cc:License></rdf:RDF></metadata></svg>
